<svg xmlns="http://www.w3.org/2000/svg" width="221.75" height="221.75" viewBox="0 0 221.75 221.75"><path opacity=".3" fill="none" stroke="#FFF" stroke-miterlimit="10" d="M114.295 1.472h106.214v106.214H114.295zM1.315 1.476h106.208v106.208H1.315zM114.295 114.356h106.214V220.57H114.295zM1.312 114.356h106.214V220.57H1.312z"/><path fill="#FFF" d="M52.204 67.527H43.14V41.631h8.574c4.69 0 8.505.77 11.445 4.829 1.678 2.345 2.378 5.179 2.378 8.049 0 8.505-4.865 13.018-13.333 13.018m.42-20.087h-2.87v14.278h2.836c4.513 0 6.333-2.905 6.333-7.104-.001-4.13-1.889-7.174-6.299-7.174M166.843 47.44v4.41h7.523v5.809h-7.523v9.868h-6.335V41.631h14.138v5.809zM58.164 180.412h-6.825l-8.646-25.897h6.791l5.214 18.163h.071l5.248-18.163h6.823zM167.782 180.901c-7.524 0-13.648-5.879-13.648-13.472 0-7.595 6.056-13.404 13.579-13.404 4.689 0 8.818 2.17 11.408 6.088.841 1.261 1.505 2.732 1.75 4.236h-6.929c-1.016-2.66-3.359-4.515-6.266-4.515-4.2 0-6.929 3.57-6.929 7.559 0 3.99 2.729 7.699 6.965 7.699 2.903 0 5.074-1.82 6.229-4.375h6.929c-1.505 6.126-6.823 10.184-13.088 10.184"/></svg>